<svg width="120" height="120" viewBox="0 0 120 120" fill="none" xmlns="http://www.w3.org/2000/svg">
<g clip-path="url(#clip0_2_2)">
<path d="M115.63 37.7076C113.465 40.7386 111.448 43.7641 109.225 46.6261C105.099 51.9342 100.912 57.1941 96.6476 62.3842C91.774 68.312 86.7931 74.1485 81.8498 80.0145C78.7196 83.7268 75.5894 87.4363 72.4217 91.1136C70.5495 93.2916 68.5539 95.365 66.7005 97.5564C64.3669 100.308 62.1246 103.135 59.8366 105.928C59.7159 106.078 59.5496 106.193 59.209 106.502C59.209 105.689 59.0454 105.016 59.2331 104.463C63.0902 93.2433 66.9231 82.0128 70.8982 70.8333C74.5192 60.6488 78.336 50.5341 81.9946 40.3631C83.0112 37.5387 82.8824 37.6942 85.9053 37.8874C89.1669 38.0939 92.4553 37.8552 95.7303 37.8579C97.7608 37.8579 99.7885 38.0107 101.816 37.9866C106.314 37.933 110.813 37.8096 115.63 37.7076Z" fill="#29D6E2"/>
<path d="M101.363 13.3932C106.121 20.823 110.217 28.3279 116.748 34.5346C105.81 36.1976 95.4004 35.8623 84.6393 35.2373C91.0901 28.5639 96.6852 21.6437 101.363 13.3932Z" fill="#65BFBA"/>
<path d="M99.413 11.6605C98.898 12.7038 98.5118 13.6534 97.9861 14.517C93.5765 21.7752 88.2898 28.3386 82.2628 34.3173C81.3321 35.2373 80.624 34.7599 79.9802 34.1859C77.5367 32.0133 74.9028 29.9855 72.7999 27.5178C68.4761 22.4457 64.4501 17.1242 60.3007 11.9045C60.3784 11.7517 60.4562 11.5961 60.5313 11.4432C61.9315 11.4432 63.3316 11.4244 64.729 11.4459C71.0323 11.5451 77.3355 11.6953 83.6415 11.7356C85.2589 11.7463 86.8762 11.4217 88.4936 11.2501C88.6894 11.2286 88.8879 11.1642 89.081 11.1723C92.4177 11.3252 95.7518 11.4861 99.413 11.6605Z" fill="#89FFFF"/>
<path d="M80.573 37.9785C76.6516 48.5761 72.7543 58.9268 68.9911 69.3231C65.2145 79.7517 61.5694 90.2258 57.9269 100.512C56.1995 95.0941 54.1074 89.6518 52.7475 84.0325C49.73 71.5387 46.0392 59.2514 42.1768 47.0069C41.1442 43.7319 39.9264 40.5159 38.8187 37.3455C43.6842 37.3455 48.6196 37.3133 53.5522 37.3616C55.0811 37.3777 56.6072 37.662 58.1361 37.721C63.5891 37.941 69.0394 38.1582 74.4924 38.2843C76.3646 38.3272 78.2448 38.1046 80.573 37.9785ZM55.7731 54.7211C55.5612 54.5977 55.3466 54.4743 55.132 54.3509C53.7131 56.7837 52.2942 59.2138 50.8753 61.6439C51.0872 61.7673 51.3018 61.8934 51.5137 62.0167C53.3939 59.8468 54.9174 57.473 55.7731 54.7211ZM51.4627 67.9445C52.5303 66.1527 53.6005 64.3637 54.6707 62.572C54.5232 62.4834 54.3729 62.3949 54.2254 62.3064C52.7743 63.8702 51.3796 65.4661 50.9531 67.6414C51.1221 67.7433 51.2911 67.8426 51.4627 67.9445ZM54.3917 48.9703C54.2657 48.8818 54.1423 48.7933 54.0162 48.7048C51.8677 50.4161 48.9012 55.8556 49.6227 57.4167C51.2857 54.4689 52.8387 51.7196 54.3917 48.9703Z" fill="#89FFFF"/>
<path d="M58.804 12.5939C64.4098 20.9544 69.8682 28.9636 77.5152 35.4438C65.2306 34.9664 52.9433 34.4863 40.6238 34.0062C46.581 26.9867 52.5892 19.9137 58.804 12.5939Z" fill="#6586E2"/>
<path d="M56.7628 104.941C56.5348 105.067 56.3068 105.195 56.0788 105.321C53.5093 102.277 50.76 99.3642 48.4184 96.1535C45.661 92.3716 43.2309 88.3509 40.7364 84.3839C40.4736 83.9682 40.5487 83.1581 40.7606 82.6539C41.5867 80.6797 42.5309 78.7539 43.4321 76.8093C43.2309 76.7047 43.0324 76.6001 42.834 76.4928C41.7503 78.4079 40.6667 80.323 39.4919 82.4044C38.5182 80.905 37.5687 79.5398 36.7426 78.0994C36.5629 77.7856 36.7131 77.1553 36.9089 76.769C37.9872 74.6554 39.1378 72.5767 40.2429 70.4738C40.487 70.0125 40.6506 69.5136 40.8518 69.0308C40.7418 68.9691 40.6292 68.9047 40.5192 68.843C38.8938 71.3885 37.2683 73.9339 35.6026 76.5384C34.7524 75.5057 33.8807 74.4462 32.9606 73.3277C34.7148 70.2887 36.7453 67.3758 37.794 63.9962C37.6197 63.897 37.4453 63.8004 37.2737 63.7012C35.5892 66.48 33.9075 69.2615 32.1318 72.1958C31.3325 71.0559 30.5359 70.0527 29.9083 68.9503C29.7151 68.6097 29.8412 67.9177 30.0692 67.5341C31.1689 65.6592 32.3893 63.8541 33.4944 61.9792C33.9289 61.2443 34.1784 60.394 34.511 59.5974C34.3581 59.5115 34.2052 59.423 34.0523 59.3372C32.2096 61.9443 30.3696 64.5514 28.535 67.1479C27.8 66.3405 27.049 65.4875 26.2631 64.6641C25.6998 64.074 25.9278 63.61 26.2765 62.985C27.6713 60.4959 28.9883 57.9639 30.3186 55.4372C30.4688 55.1556 30.5305 54.8257 30.6325 54.5172C30.5144 54.4582 30.3937 54.4019 30.273 54.3429C28.5081 57.1699 26.7432 59.997 24.8737 62.9931C24.2729 62.183 23.715 61.432 23.09 60.5898C25.5121 57.2236 28.4813 53.7179 30.1872 49.4344C30.0692 49.3539 29.9539 49.2734 29.8358 49.193C27.3119 52.7228 24.7852 56.2526 22.111 59.9943C21.2098 58.8839 20.3246 57.7976 19.5173 56.8025C21.6014 53.1707 23.6184 49.6516 25.6381 46.1325C25.4504 46.0226 25.2626 45.9099 25.0749 45.7999C23.031 49.0428 20.9871 52.2883 18.7367 55.861C13.7988 49.1769 8.88222 42.5222 4.09711 36.0473C14.9119 36.3746 25.7508 36.7045 36.6782 37.0371C44.7625 59.1762 49.7756 82.3454 56.7628 104.941Z" fill="#29ABE2"/>
<path d="M56.9854 11.6149C50.4944 19.1198 44.2797 26.3082 37.9147 33.6709C32.4322 26.7641 28.5537 19.4819 24.8308 12.2801C35.2432 12.0655 45.8944 11.8429 56.9854 11.6149Z" fill="#29D6E2"/>
<path d="M35.3022 33.9686C25.2814 33.9686 15.3571 33.9686 5.45163 33.9686C11.4008 26.9465 17.2535 20.0424 23.1249 13.1089C25.0454 16.7942 26.7727 20.4287 28.7924 23.8914C30.7988 27.3274 33.1001 30.589 35.3022 33.9686ZM19.7855 31.4714C21.588 28.8724 23.377 26.6381 24.6216 23.7761C22.7038 24.3474 19.3912 29.4866 19.7855 31.4714ZM17.5646 28.5398C18.7314 26.7588 19.8982 24.9777 21.0649 23.1941C20.9496 23.1216 20.8369 23.0465 20.7243 22.9714C19.2437 24.5566 17.916 26.2411 16.996 28.2045C17.1864 28.3171 17.3768 28.4298 17.5646 28.5398Z" fill="#6586E2"/>
<path d="M118.674 31.0745C120.388 33.1613 120.351 35.3741 119.076 37.6567C116.523 42.238 113.621 46.5724 110.316 50.6629C106.282 55.6518 102.53 60.8688 98.4877 65.8524C94.0325 71.3429 89.3895 76.6805 84.8243 82.0799C81.8497 85.5963 78.8912 89.1207 75.8898 92.613C73.9211 94.9063 71.8423 97.1058 69.8923 99.4179C67.4381 102.328 65.0697 105.311 62.6583 108.256C62.1863 108.832 61.6525 109.356 61.1992 109.943C59.3887 112.276 57.4146 111.853 55.6711 110.023C51.5834 105.726 47.1926 101.679 43.9632 96.6364C42.6891 94.6462 41.635 92.5111 40.3073 90.5584C36.3698 84.7836 32.51 78.9417 28.3123 73.3573C23.6586 67.1667 18.5919 61.2845 13.8417 55.161C11.2211 51.7814 8.87416 48.1872 6.41723 44.6815C4.49407 41.9349 2.61382 39.1587 0.671886 36.4229C-0.277626 35.0844 -0.223981 33.8184 0.854278 32.6516C3.50969 29.7709 6.22679 26.9492 8.88489 24.0739C12.4871 20.1739 16.0894 16.2712 19.6326 12.3203C21.773 9.93311 24.3721 8.84412 27.5559 9.06943C28.1997 9.11503 28.8488 9.0748 29.4952 9.0748C29.4952 8.99969 29.4952 8.92191 29.4925 8.84412C38.2688 8.72074 47.0451 8.56249 55.8213 8.49007C62.2185 8.43642 68.621 8.43374 75.0181 8.53298C78.6767 8.58931 82.3325 8.99433 85.9911 9.04529C89.4056 9.09089 92.8415 9.04797 96.2399 8.73415C100.204 8.36937 103.039 10.0082 105.225 13.0821C107.993 16.9713 110.638 20.9517 113.463 24.8007C115.069 26.9868 116.947 28.9743 118.674 31.0745ZM109.225 46.6261C111.448 43.7641 113.465 40.7386 115.63 37.7077C110.813 37.8096 106.314 37.933 101.816 37.9866C99.7885 38.0108 97.7608 37.8579 95.7303 37.8579C92.4553 37.8552 89.1669 38.0939 85.9053 37.8874C82.8824 37.6943 83.0112 37.5387 81.9946 40.3631C78.336 50.5341 74.5192 60.6488 70.8982 70.8333C66.9231 82.0128 63.0902 93.2433 59.2331 104.463C59.0454 105.016 59.209 105.689 59.209 106.502C59.5496 106.193 59.7159 106.078 59.8366 105.928C62.1246 103.135 64.3669 100.308 66.7005 97.5564C68.5539 95.365 70.5495 93.2916 72.4217 91.1136C75.5894 87.4363 78.7196 83.7268 81.8497 80.0146C86.7931 74.1485 91.774 68.312 96.6476 62.3842C100.912 57.1941 105.099 51.9342 109.225 46.6261ZM116.748 34.5346C110.217 28.3279 106.121 20.823 101.363 13.3932C96.6852 21.6438 91.09 28.5639 84.6393 35.2373C95.4004 35.8623 105.81 36.1976 116.748 34.5346ZM97.9861 14.5171C98.5118 13.6534 98.898 12.7039 99.413 11.6605C95.7518 11.4861 92.4177 11.3252 89.081 11.1723C88.8879 11.1643 88.6894 11.2286 88.4936 11.2501C86.8762 11.4218 85.2589 11.7463 83.6415 11.7356C77.3355 11.6953 71.0323 11.5451 64.729 11.4459C63.3316 11.4244 61.9315 11.4432 60.5313 11.4432C60.4562 11.5961 60.3784 11.7517 60.3007 11.9046C64.4501 17.1242 68.4761 22.4457 72.7999 27.5178C74.9028 29.9855 77.5367 32.0133 79.9802 34.1859C80.624 34.7599 81.3321 35.2373 82.2628 34.3173C88.2898 28.3386 93.5765 21.7752 97.9861 14.5171ZM68.9911 69.3232C72.7543 58.9268 76.6516 48.5761 80.573 37.9786C78.2448 38.1046 76.3646 38.3273 74.4924 38.2843C69.0394 38.1583 63.5891 37.941 58.1361 37.7211C56.6072 37.6621 55.081 37.3777 53.5522 37.3617C48.6195 37.3134 43.6842 37.3456 38.8186 37.3456C39.9264 40.516 41.1441 43.732 42.1768 47.007C46.0392 59.2514 49.73 71.5387 52.7475 84.0325C54.1074 89.6518 56.1995 95.0941 57.9269 100.512C61.5694 90.2258 65.2145 79.7517 68.9911 69.3232ZM77.5152 35.4439C69.8682 28.9636 64.4098 20.9544 58.804 12.5939C52.5892 19.9137 46.581 26.9868 40.6238 34.0062C52.9433 34.4863 65.2306 34.9664 77.5152 35.4439ZM56.0788 105.321C56.3068 105.195 56.5348 105.067 56.7628 104.941C49.7756 82.3454 44.7625 59.1763 36.6782 37.0371C25.7508 36.7045 14.9119 36.3746 4.0971 36.0474C8.88221 42.5223 13.7987 49.1769 18.7367 55.861C20.9871 52.2883 23.031 49.0428 25.0749 45.8C25.2626 45.9099 25.4504 46.0226 25.6381 46.1326C23.6184 49.6517 21.6014 53.1707 19.5173 56.8025C20.3246 57.7976 21.2098 58.8839 22.111 59.9944C24.7852 56.2526 27.3118 52.7228 29.8358 49.193C29.9539 49.2735 30.0692 49.3539 30.1872 49.4344C28.4813 53.7179 25.5121 57.2236 23.09 60.5898C23.715 61.432 24.2729 62.1831 24.8737 62.9931C26.7432 59.997 28.5081 57.17 30.273 54.3429C30.3937 54.4019 30.5144 54.4582 30.6325 54.5172C30.5305 54.8257 30.4688 55.1556 30.3186 55.4372C28.9882 57.9639 27.6713 60.4959 26.2765 62.985C25.9278 63.61 25.6998 64.074 26.2631 64.6641C27.049 65.4876 27.8 66.3405 28.5349 67.1479C30.3696 64.5515 32.2096 61.9443 34.0523 59.3372C34.2052 59.423 34.3581 59.5116 34.511 59.5974C34.1784 60.394 33.9289 61.2443 33.4944 61.9792C32.3893 63.8541 31.1689 65.6592 30.0692 67.5341C29.8412 67.9177 29.7151 68.6097 29.9083 68.9503C30.5359 70.0527 31.3325 71.0559 32.1318 72.1958C33.9075 69.2615 35.5892 66.48 37.2737 63.7012C37.4453 63.8004 37.6197 63.897 37.794 63.9963C36.7453 67.3759 34.7148 70.2888 32.9606 73.3277C33.8806 74.4462 34.7524 75.5057 35.6026 76.5384C37.2683 73.9339 38.8937 71.3885 40.5192 68.8431C40.6291 68.9047 40.7418 68.9691 40.8518 69.0308C40.6506 69.5136 40.487 70.0125 40.2429 70.4739C39.1378 72.5767 37.9871 74.6555 36.9089 76.7691C36.7131 77.1553 36.5629 77.7856 36.7426 78.0994C37.5687 79.5398 38.5182 80.9051 39.4919 82.4044C40.6667 80.323 41.7503 78.4079 42.8339 76.4928C43.0324 76.6001 43.2309 76.7047 43.4321 76.8093C42.5309 78.7539 41.5867 80.6798 40.7606 82.6539C40.5487 83.1581 40.4736 83.9682 40.7364 84.3839C43.2309 88.3509 45.661 92.3716 48.4184 96.1536C50.76 99.3642 53.5092 102.277 56.0788 105.321ZM37.9147 33.6709C44.2797 26.3082 50.4944 19.1198 56.9854 11.6149C45.8944 11.8429 35.2432 12.0655 24.8308 12.2801C28.5537 19.4819 32.4322 26.7641 37.9147 33.6709ZM5.45163 33.9686C15.3571 33.9686 25.2814 33.9686 35.3022 33.9686C33.1001 30.589 30.7988 27.3274 28.7924 23.8915C26.7727 20.4287 25.0454 16.7943 23.1249 13.1089C17.2535 20.0425 11.4008 26.9465 5.45163 33.9686Z" fill="black"/>
<path d="M55.132 54.3509C55.3466 54.4743 55.5612 54.5977 55.7731 54.7211C54.9174 57.473 53.3939 59.8468 51.5137 62.0168C51.3018 61.8934 51.0872 61.7673 50.8753 61.6439C52.2942 59.2138 53.7131 56.7837 55.132 54.3509Z" fill="black"/>
<path d="M54.6706 62.572C53.6004 64.3637 52.5302 66.1528 51.4627 67.9445C51.291 67.8426 51.122 67.7433 50.9531 67.6414C51.3795 65.4661 52.7743 63.8702 54.2254 62.3065C54.3729 62.395 54.5231 62.4835 54.6706 62.572Z" fill="black"/>
<path d="M54.0162 48.7048C54.1423 48.7933 54.2656 48.8819 54.3917 48.9704C52.8387 51.7197 51.2857 54.469 49.6227 57.4167C48.9012 55.8557 51.8677 50.4161 54.0162 48.7048Z" fill="black"/>
<path d="M24.6216 23.7761C23.377 26.6381 21.588 28.8724 19.7855 31.4715C19.3912 29.4866 22.7038 24.3474 24.6216 23.7761Z" fill="black"/>
<path d="M21.0649 23.1941C19.8982 24.9778 18.7314 26.7588 17.5646 28.5398C17.3768 28.4298 17.1864 28.3172 16.996 28.2045C17.916 26.2411 19.2437 24.5567 20.7243 22.9715C20.8369 23.0466 20.9496 23.1217 21.0649 23.1941Z" fill="black"/>
</g>
<defs>
<clipPath id="clip0_2_2">
<rect width="120" height="120" fill="white"/>
</clipPath>
</defs>
</svg>
