<svg xmlns="http://www.w3.org/2000/svg"  viewBox="0 0 100 100" width="100px" height="100px"><path fill="#ee5490" d="M82,31v3H18v-3c0-7.18,5.82-13,13-13h38C76.18,18,82,23.82,82,31z"/><rect width="64" height="16" x="18" y="34" fill="#ef6388"/><path fill="#e85654" d="M82,66v3c0,7.18-5.82,13-13,13H31c-7.18,0-13-5.82-13-13v-3H82z"/><rect width="64" height="16" x="18" y="50" fill="#f05b6c"/><path fill="#fff" d="M41.046,59.5c-0.024,0-0.049-0.001-0.073-0.003c-0.412-0.04-0.714-0.406-0.674-0.818 c0.051-0.535,0.076-1.002,0.076-1.428c0-1.235-0.172-2.654-0.337-4.027C39.896,52.051,39.75,50.839,39.75,50 c0-5.652,4.598-10.25,10.25-10.25c3.152,0,6.086,1.425,8.049,3.91c0.257,0.325,0.201,0.797-0.124,1.053 c-0.327,0.257-0.797,0.2-1.054-0.124c-1.676-2.123-4.181-3.34-6.871-3.34c-4.825,0-8.75,3.925-8.75,8.75 c0,0.749,0.147,1.968,0.276,3.043c0.172,1.417,0.349,2.882,0.349,4.207c0,0.475-0.027,0.989-0.084,1.572 C41.754,59.21,41.428,59.5,41.046,59.5z"/><path fill="#fff" d="M39.95,66.393l-1.4-0.536c0-0.001,0.347-0.908,0.455-1.213c0.065-0.188,0.375-1.154,0.683-2.442 c0.096-0.403,0.499-0.652,0.903-0.556c0.403,0.096,0.651,0.5,0.556,0.903c-0.316,1.329-0.639,2.342-0.727,2.592 C40.309,65.457,39.95,66.393,39.95,66.393z"/><path fill="#fff" d="M69.239,50.963c-0.003,0-0.006,0-0.009,0c-0.414-0.005-0.748-0.308-0.743-0.722 c0.001-0.056,0.004-0.111,0.009-0.166c0.004-8.996-6.361-16.642-15.132-18.255c-0.407-0.075-0.677-0.466-0.602-0.874 c0.074-0.407,0.466-0.677,0.873-0.602C63.118,32.09,70,40.356,70,50c0,0.063-0.004,0.125-0.009,0.186 C69.986,50.597,69.649,50.963,69.239,50.963z"/><path fill="#fff" d="M34.25,62c-0.071,0-0.144-0.01-0.216-0.032c-0.396-0.119-0.621-0.537-0.503-0.934 c0.003-0.009,0.344-1.203,0.344-3.535c0-0.896-0.128-1.903-0.264-2.97c-0.169-1.333-0.361-2.845-0.361-4.53 c0-5.404,2.642-10.507,7.065-13.651c0.338-0.241,0.806-0.16,1.046,0.177c0.24,0.338,0.161,0.806-0.177,1.046 C37.155,40.435,34.75,45.081,34.75,50c0,1.59,0.186,3.051,0.35,4.34c0.142,1.116,0.275,2.169,0.275,3.16 c0,2.581-0.39,3.91-0.406,3.965C34.871,61.791,34.573,62,34.25,62z"/><path fill="#fff" d="M63.126,65.25c-0.026,0-0.054-0.001-0.081-0.004c-0.412-0.044-0.71-0.414-0.666-0.826 c0.004-0.035,0.371-3.483,0.371-5.42c0-6.385-0.535-9.092-0.926-11.069l-0.035-0.187c-0.617-3.255-2.599-6.139-5.437-7.912 c-0.352-0.22-0.458-0.682-0.238-1.034c0.219-0.351,0.682-0.458,1.033-0.239c3.191,1.994,5.42,5.24,6.116,8.906l0.026,0.142 c0.409,2.07,0.96,4.86,0.96,11.392c0,2.017-0.364,5.436-0.379,5.58C63.829,64.965,63.504,65.25,63.126,65.25z"/><path fill="#fff" d="M36.625,64.625c-0.077,0-0.156-0.012-0.234-0.038c-0.394-0.13-0.607-0.554-0.478-0.947 c0.012-0.037,1.212-3.714,1.212-6.39c0-1.034-0.16-2.359-0.314-3.641C36.651,52.283,36.5,51.03,36.5,50 c0-7.444,6.056-13.5,13.5-13.5c1.154,0,2.313,0.151,3.441,0.448c0.4,0.105,0.64,0.516,0.534,0.916 c-0.105,0.401-0.514,0.642-0.917,0.534C52.055,38.134,51.025,38,50,38c-6.617,0-12,5.383-12,12c0,0.94,0.146,2.149,0.3,3.43 c0.16,1.326,0.325,2.697,0.325,3.82c0,2.919-1.235,6.7-1.288,6.86C37.233,64.425,36.94,64.625,36.625,64.625z"/><path fill="#fff" d="M55.125,69.625c-0.099,0-0.199-0.02-0.296-0.061c-0.38-0.163-0.557-0.604-0.394-0.985 c0.354-0.827,0.83-2.385,0.835-2.4c0.033-0.127,0.979-3.732,0.979-7.179c0-5.748-0.444-7.998-0.801-9.806l-0.045-0.234 c-0.49-2.584-2.763-4.46-5.404-4.46c-0.629,0-1.257,0.113-1.869,0.335c-0.387,0.142-0.818-0.06-0.961-0.449 c-0.142-0.389,0.06-0.819,0.449-0.961C48.396,43.143,49.196,43,50,43c3.361,0,6.254,2.389,6.879,5.681l0.042,0.223 C57.29,50.776,57.75,53.106,57.75,59c0,3.64-0.994,7.429-1.036,7.588c-0.028,0.095-0.513,1.68-0.899,2.582 C55.692,69.455,55.416,69.625,55.125,69.625z"/><path fill="#fff" d="M42.125,68.25c-0.113,0-0.228-0.025-0.335-0.079c-0.371-0.185-0.521-0.636-0.336-1.006 c0.004-0.007,0.359-0.721,0.619-1.448c0.06-0.177,1.552-4.597,1.552-8.466c0-1.427-0.184-2.951-0.361-4.425 C43.14,51.801,43,50.641,43,50c0-1.588,0.524-3.089,1.518-4.341c0.258-0.325,0.729-0.38,1.054-0.122 c0.325,0.257,0.379,0.729,0.122,1.053C44.912,47.575,44.5,48.754,44.5,50c0,0.55,0.14,1.712,0.252,2.645 c0.184,1.518,0.373,3.088,0.373,4.605c0,4.116-1.568,8.764-1.636,8.96c-0.295,0.826-0.678,1.593-0.693,1.625 C42.664,68.098,42.399,68.25,42.125,68.25z"/><path fill="#fff" d="M59.126,68c-0.065,0-0.132-0.008-0.198-0.026c-0.399-0.109-0.635-0.521-0.526-0.921 C58.412,67.013,59.5,62.971,59.5,59c0-6.076-0.479-8.496-0.863-10.441l-0.039-0.202c-0.043-0.225-0.097-0.443-0.156-0.659 c-0.109-0.399,0.126-0.812,0.525-0.921c0.402-0.111,0.812,0.126,0.922,0.525c0.069,0.255,0.133,0.512,0.183,0.774l0.037,0.196 C60.505,50.277,61,52.777,61,59c0,4.177-1.104,8.275-1.151,8.447C59.758,67.781,59.455,68,59.126,68z"/><path fill="#fff" d="M51.625,70c-0.099,0-0.199-0.02-0.296-0.061c-0.38-0.163-0.557-0.604-0.394-0.985 c0.313-0.732,0.882-2.591,1.124-3.385l0.085-0.277c0.049-0.197,0.575-2.309,0.776-4.608c0.036-0.413,0.405-0.717,0.813-0.682 c0.412,0.036,0.718,0.4,0.682,0.813c-0.207,2.367-0.725,4.483-0.827,4.883l-0.094,0.309c-0.271,0.887-0.834,2.731-1.18,3.538 C52.192,69.83,51.916,70,51.625,70z"/><path fill="#fff" d="M45.188,69.375c-0.106,0-0.215-0.023-0.317-0.071c-0.375-0.176-0.536-0.623-0.36-0.998 c0.138-0.293,0.402-0.88,0.629-1.513c0.068-0.198,1.735-5.062,1.735-9.543c0-1.621-0.197-3.255-0.387-4.835 C46.364,51.399,46.25,50.403,46.25,50c0-2.068,1.683-3.75,3.75-3.75c1.802,0,3.352,1.276,3.685,3.034l0.047,0.25 c0.289,1.459,0.649,3.282,0.744,7.324c0.01,0.414-0.318,0.758-0.732,0.768c-0.404,0.019-0.757-0.318-0.768-0.732 c-0.092-3.913-0.438-5.666-0.716-7.073l-0.049-0.255C52.012,48.512,51.082,47.75,50,47.75c-1.24,0-2.25,1.009-2.25,2.25 c0,0.368,0.171,1.772,0.227,2.234c0.196,1.625,0.398,3.305,0.398,5.016c0,4.731-1.746,9.826-1.82,10.041 c-0.25,0.699-0.537,1.335-0.687,1.653C45.74,69.216,45.471,69.375,45.188,69.375z"/><path fill="#fff" d="M50.03,64.625c-0.053,0-0.105-0.005-0.158-0.017c-0.405-0.087-0.663-0.485-0.576-0.891 c0.174-0.813,0.579-2.9,0.579-4.718c0-6.401-0.476-8.56-0.48-8.581c-0.092-0.403,0.159-0.806,0.562-0.899 c0.404-0.095,0.804,0.156,0.899,0.558c0.021,0.09,0.52,2.286,0.52,8.922c0,1.961-0.428,4.172-0.612,5.032 C50.688,64.384,50.376,64.625,50.03,64.625z"/><path fill="#fff" d="M48.25,70c-0.099,0-0.198-0.019-0.294-0.06c-0.381-0.163-0.559-0.603-0.396-0.984 c0.078-0.186,0.374-0.968,0.723-1.956c0.138-0.391,0.565-0.596,0.957-0.458c0.391,0.138,0.595,0.566,0.457,0.957 c-0.345,0.976-0.655,1.806-0.758,2.044C48.818,69.829,48.541,70,48.25,70z"/><path fill="#fff" d="M66.875,60.25c-0.414,0-0.75-0.336-0.75-0.75c0-0.994-0.023-1.94-0.061-2.844 c-0.018-0.414,0.304-0.763,0.718-0.781c0.401-0.021,0.764,0.304,0.78,0.718c0.039,0.923,0.063,1.891,0.063,2.906 C67.625,59.914,67.289,60.25,66.875,60.25z"/><path fill="#fff" d="M66.56,53.625c-0.382,0-0.709-0.291-0.746-0.679c-0.193-2.041-0.466-3.958-0.811-5.696l-0.021-0.108 C63.62,39.96,57.319,34.75,50,34.75c-1.91,0-3.795,0.362-5.6,1.075c-0.383,0.153-0.82-0.036-0.973-0.421s0.036-0.821,0.422-0.973 c1.98-0.784,4.05-1.181,6.15-1.181c8.039,0,14.96,5.724,16.456,13.61l0.019,0.098c0.354,1.788,0.634,3.755,0.833,5.846 c0.039,0.412-0.264,0.778-0.676,0.817C66.607,53.624,66.583,53.625,66.56,53.625z"/><path fill="#fff" d="M32.807,42.125c-0.113,0-0.229-0.025-0.336-0.08c-0.37-0.186-0.52-0.637-0.333-1.007 c3.374-6.704,10.119-10.929,17.603-11.025c0.428-0.024,0.755,0.327,0.76,0.74c0.005,0.415-0.326,0.754-0.74,0.76 c-6.922,0.089-13.16,3.997-16.282,10.2C33.346,41.974,33.081,42.125,32.807,42.125z"/><path fill="#fff" d="M31.874,57.374c-0.269,0-0.527-0.145-0.662-0.398C31.163,56.882,30,54.633,30,50 c0-1.76,0.248-3.551,0.738-5.325c0.11-0.398,0.521-0.631,0.922-0.523c0.399,0.11,0.634,0.523,0.523,0.923 C31.73,46.718,31.5,48.375,31.5,50c0,4.216,1.029,6.257,1.04,6.277c0.189,0.367,0.048,0.819-0.318,1.011 C32.11,57.346,31.991,57.374,31.874,57.374z"/><g><path fill="#1f212b" d="M69,83H31c-7.72,0-14-6.28-14-14V31c0-7.72,6.28-14,14-14h38c7.72,0,14,6.28,14,14v38 C83,76.72,76.72,83,69,83z M31,19c-6.617,0-12,5.383-12,12v38c0,6.617,5.383,12,12,12h38c6.617,0,12-5.383,12-12V31 c0-6.617-5.383-12-12-12H31z"/><path fill="#1f212b" d="M69,83H31c-7.72,0-14-6.28-14-14V31c0-7.72,6.28-14,14-14h38c7.72,0,14,6.28,14,14v38 C83,76.72,76.72,83,69,83z M31,19c-6.617,0-12,5.383-12,12v38c0,6.617,5.383,12,12,12h38c6.617,0,12-5.383,12-12V31 c0-6.617-5.383-12-12-12H31z"/><path fill="#1f212b" d="M65.9,77H34.1C27.979,77,23,72.021,23,65.9V34.1C23,27.979,27.979,23,34.1,23h26.4 c0.276,0,0.5,0.224,0.5,0.5S60.776,24,60.5,24H34.1C28.53,24,24,28.531,24,34.1v31.8C24,71.469,28.53,76,34.1,76H65.9 C71.47,76,76,71.469,76,65.9V51.5c0-0.276,0.224-0.5,0.5-0.5s0.5,0.224,0.5,0.5v14.4C77,72.021,72.021,77,65.9,77z"/><path fill="#1f212b" d="M76.5,42c-0.276,0-0.5-0.224-0.5-0.5v-2c0-0.276,0.224-0.5,0.5-0.5s0.5,0.224,0.5,0.5v2 C77,41.776,76.776,42,76.5,42z"/><path fill="#1f212b" d="M76.5,49c-0.276,0-0.5-0.224-0.5-0.5v-4c0-0.276,0.224-0.5,0.5-0.5s0.5,0.224,0.5,0.5v4 C77,48.776,76.776,49,76.5,49z"/></g></svg>